<?xml version="1.0" standalone="no"?>
<!DOCTYPE svg PUBLIC "-//W3C//DTD SVG 20010904//EN"
 "http://www.w3.org/TR/2001/REC-SVG-20010904/DTD/svg10.dtd">
<svg version="1.0" xmlns="http://www.w3.org/2000/svg"
 width="512.000000pt" height="512.000000pt" viewBox="0 0 512.000000 512.000000"
 preserveAspectRatio="xMidYMid meet">
<metadata>
Created by potrace 1.14, written by Peter Selinger 2001-2017
</metadata>
<g transform="translate(0.000000,512.000000) scale(0.100000,-0.100000)"
fill="#000000" stroke="none">
<path d="M2475 5084 c-57 -35 -650 -378 -745 -432 -25 -14 -124 -71 -220 -127
-96 -56 -202 -117 -235 -136 -33 -19 -68 -38 -77 -44 -9 -5 -41 -23 -70 -39
-29 -15 -60 -33 -68 -40 -8 -6 -24 -16 -35 -22 -18 -10 -210 -120 -552 -317
-87 -50 -125 -78 -132 -96 -13 -35 -14 -2494 0 -2536 8 -27 44 -51 286 -190
152 -88 285 -164 294 -170 10 -5 71 -41 136 -79 65 -37 138 -80 163 -94 47
-26 234 -134 355 -205 39 -23 84 -49 100 -58 17 -8 59 -33 95 -54 36 -20 81
-46 100 -57 19 -11 91 -53 160 -93 387 -225 493 -284 519 -290 24 -5 47 4 128
51 54 31 112 64 128 74 93 53 549 316 750 433 66 38 135 78 153 88 18 11 93
54 165 95 73 42 296 171 497 286 201 116 376 221 390 234 l25 24 1 1262 c1
809 -2 1270 -8 1284 -6 13 -74 58 -164 110 -193 111 -181 104 -409 237 -104
60 -210 121 -235 135 -25 14 -167 96 -316 183 -150 86 -291 168 -315 182 -24
13 -116 66 -204 117 -88 51 -180 104 -205 118 -25 14 -78 45 -118 69 -41 24
-75 43 -77 43 -2 0 -34 19 -71 41 -91 56 -115 57 -189 13z"/>
</g>
</svg>
